<?xml version="1.0" encoding="UTF-8"?>
<svg id="Layer_1" data-name="Layer 1" xmlns="http://www.w3.org/2000/svg" viewBox="0 0 100 100">
  <defs>
    <style>
      .cls-1 {
        fill: none;
        stroke: #177689;
        stroke-linecap: round;
        stroke-miterlimit: 10;
        stroke-width: 3px;
      }
    </style>
  </defs>
  <path class="cls-1" d="M80.9,31c-.8.1-1.7-.3-2-1.1l-1.2-3.7c0,0,0-.2-.2-.2l-3.7-1.3c-.5-.2-.9-.7-1-1.1-.2-.6,0-1.2.3-1.7s.7-.5,1.1-.7l3.2-1.1c.2,0,.3-.2.4-.4l1.2-3.6c.3-.9,1.3-1.3,2.2-1.1s1,.6,1.2,1.2l1.2,3.6c0,.2.2.2.4.3l3.4,1.2c.6.2,1,.8,1.1,1.4s-.1,1.4-.7,1.8-.5.3-.8.4l-3.2,1.1c-.1,0-.2.1-.2.2l-1.2,3.6c-.2.6-.7,1.1-1.4,1.2Z"/>
  <path class="cls-1" d="M88.4,32.7v26.4c0,2.7-.8,5.3-2.3,7.5-1.6,2.4-4,4.2-6.7,5.3-1.6.6-3.3.9-5,.9h-26.4c-3.3,0-6.7.8-9.6,2.3-1.7.9-3.2,1.9-4.6,3.2l-3.6,3.3-.5.5-2.9,2.6c-.6.5-1.4.6-2.1.3-.6-.3-1.1-.9-1.1-1.7v-10.3c0-.2-.2-.4-.4-.4-.8-.1-1.7-.3-2.4-.7l-1.4-.6c-1.5-.8-2.8-1.7-3.9-2.9-.7-.7-1.2-1.4-1.7-2.2-.4-.7-.8-1.4-1.1-2.3-.5-1.5-.9-3.1-.9-4.7v-30.2c0-3.6,1.4-7,3.9-9.6,1.2-1.2,2.5-2.3,4.1-3,1.8-.9,3.8-1.5,5.9-1.5h45.2"/>
  <path class="cls-1" d="M24.8,51.9h29.5"/>
  <path class="cls-1" d="M24.6,42.1h17.8"/>
  <path class="cls-1" d="M24.7,32.3h17.5"/>
  <path class="cls-1" d="M66.6,54.4c-.3.8-1,1.3-1.8,1.3-.8,0-1.6-.5-1.8-1.2l-1.2-3.5-2.1-6.5c0-.2-.1-.3-.3-.3l-2.1-.7-7.7-2.6c-.6-.2-1-.5-1.2-1.1-.5-1.1,0-2.3,1.2-2.7l1.7-.6,3.7-1.2,4.3-1.4c.2,0,.4-.1.5-.3l1.3-3.9,1.9-5.8c.3-.8.9-1.4,1.8-1.5.8,0,1.7.4,1.9,1.2l1.7,4.9.7,2.2.9,2.8c0,.3.2.4.5.4l5,1.7,2.2.7,2.2.7c.7.2,1.2.6,1.4,1.2.3.7.2,1.4-.2,2-.2.3-.6.6-1,.7l-7.5,2.5-2.3.8c-.2,0-.2.2-.3.3l-.6,1.9c-.9,2.7-1.8,5.4-2.7,8Z"/>
</svg>